<?xml version="1.0" encoding="UTF-8" standalone="no"?>
<svg
   xmlns:dc="http://purl.org/dc/elements/1.1/"
   xmlns:cc="http://creativecommons.org/ns#"
   xmlns:rdf="http://www.w3.org/1999/02/22-rdf-syntax-ns#"
   xmlns:svg="http://www.w3.org/2000/svg"
   xmlns="http://www.w3.org/2000/svg"
   xmlns:sodipodi="http://sodipodi.sourceforge.net/DTD/sodipodi-0.dtd"
   xmlns:inkscape="http://www.inkscape.org/namespaces/inkscape"
   width="297mm"
   height="210mm"
   viewBox="0 0 297 210"
   version="1.1"
   id="svg711"
   inkscape:version="1.0.2 (e86c870879, 2021-01-15)"
   sodipodi:docname="forza_costante.svg">
  <defs
     id="defs705" />
  <sodipodi:namedview
     id="base"
     pagecolor="#ffffff"
     bordercolor="#666666"
     borderopacity="1.0"
     inkscape:pageopacity="0.0"
     inkscape:pageshadow="2"
     inkscape:zoom="2.8"
     inkscape:cx="379.42492"
     inkscape:cy="420.37001"
     inkscape:document-units="mm"
     inkscape:current-layer="layer1"
     inkscape:document-rotation="0"
     showgrid="false"
     inkscape:window-width="1896"
     inkscape:window-height="1035"
     inkscape:window-x="1930"
     inkscape:window-y="31"
     inkscape:window-maximized="0" />
  <metadata
     id="metadata708">
    <rdf:RDF>
      <cc:Work
         rdf:about="">
        <dc:format>image/svg+xml</dc:format>
        <dc:type
           rdf:resource="http://purl.org/dc/dcmitype/StillImage" />
        <dc:title></dc:title>
      </cc:Work>
    </rdf:RDF>
  </metadata>
  <g
     inkscape:label="Livello 1"
     inkscape:groupmode="layer"
     id="layer1">
    <path
       style="fill:none;stroke:#000000;stroke-width:0.264583px;stroke-linecap:butt;stroke-linejoin:miter;stroke-opacity:1"
       d="M 52.292628,18.328442 V 130.61852"
       id="path715" />
    <path
       style="fill:none;stroke:#000000;stroke-width:0.264583px;stroke-linecap:butt;stroke-linejoin:miter;stroke-opacity:1"
       d="M 43.317308,117.60001 H 239.50983"
       id="path717" />
    <rect
       style="fill:#800080;stroke-width:0.264583"
       id="rect721"
       width="36.450432"
       height="27.841578"
       x="61.530575"
       y="89.522118" />
    <path
       style="fill:none;stroke:#000000;stroke-width:0.237859px;stroke-linecap:butt;stroke-linejoin:miter;stroke-opacity:1"
       d="M 97.921739,104.96818 H 183.36616"
       id="path723" />
    <path
       style="fill:none;stroke:#000000;stroke-width:0.264583px;stroke-linecap:butt;stroke-linejoin:miter;stroke-opacity:1"
       d="m 176.46754,100.04864 6.89862,4.91954 -4.52865,6.35048"
       id="path725" />
    <path
       style="fill:none;stroke:#000000;stroke-width:0.264583px;stroke-linecap:butt;stroke-linejoin:miter;stroke-opacity:1"
       d="M 64.275699,129.45846 H 215.37666"
       id="path727" />
    <path
       style="fill:none;stroke:#000000;stroke-width:0.264583px;stroke-linecap:butt;stroke-linejoin:miter;stroke-opacity:1"
       d="m 207.18904,123.72257 8.18762,5.73589 -5.76485,8.22896"
       id="path729" />
    <text
       xml:space="preserve"
       style="font-style:italic;font-size:10.5833px;line-height:1.25;font-family:sans-serif;-inkscape-font-specification:'sans-serif Italic';letter-spacing:0px;stroke-width:0.264583"
       x="191.26735"
       y="109.37212"
       id="text733"><tspan
         sodipodi:role="line"
         id="tspan731"
         x="191.26735"
         y="109.37212"
         style="stroke-width:0.264583">F</tspan></text>
    <text
       xml:space="preserve"
       style="font-style:italic;font-size:10.5833px;line-height:1.25;font-family:sans-serif;-inkscape-font-specification:'sans-serif Italic';letter-spacing:0px;stroke-width:0.264583"
       x="222.34868"
       y="132.91472"
       id="text737"><tspan
         sodipodi:role="line"
         id="tspan735"
         x="222.34868"
         y="132.91472"
         style="stroke-width:0.264583">s</tspan></text>
    <path
       style="fill:none;stroke:#000000;stroke-width:0.264583px;stroke-linecap:butt;stroke-linejoin:miter;stroke-opacity:1"
       d="m 192.4957,98.72996 c 0.81913,-0.105479 1.64737,-0.07235 2.46856,-0.167097 0.49374,-0.05696 0.95516,-0.195141 1.45161,-0.151903 0.0392,0.0034 0.69963,0.09028 0.70891,0.102534 0.0186,0.02453 0.031,0.05317 0.0464,0.07975"
       id="path739" />
    <path
       style="fill:none;stroke:#000000;stroke-width:0.264583px;stroke-linecap:butt;stroke-linejoin:miter;stroke-opacity:1"
       d="m 195.77024,97.598263 c 0.045,0.02151 0.0861,0.05492 0.13503,0.06456 0.19905,0.03919 0.40597,0.01225 0.60765,0.03418 0.2814,0.03059 1.15332,0.176398 1.03384,0.6456 -0.14567,0.57206 -0.70043,0.670631 -1.20263,0.778515 -0.23897,0.05134 -0.34575,0.06706 -0.33336,0.09494 0.0414,0.09312 0.20237,0.0245 0.30382,0.03418"
       id="path741" />
    <path
       style="fill:none;stroke:#000000;stroke-width:0.264583px;stroke-linecap:butt;stroke-linejoin:miter;stroke-opacity:1"
       d="m 222.74533,123.49733 c 0.87418,0.0689 1.75007,-5.3e-4 2.6247,0.0228 0.41353,0.011 0.75543,0.0624 1.16465,0.0798 0.38402,0.0163 0.77063,-0.0386 1.152,-0.076 0.25066,-0.0246 0.28488,-0.0229 0.52325,-0.057 0.0128,-0.002 0.0382,-0.007 0.0338,-0.019 -1.2e-4,-2.6e-4 0.0304,0.10196 0.0464,0.13292"
       id="path743" />
    <path
       style="fill:none;stroke:#000000;stroke-width:0.264583px;stroke-linecap:butt;stroke-linejoin:miter;stroke-opacity:1"
       d="m 227.53055,122.66185 c 0.0221,0.15309 0.11155,-0.0144 0.16035,0.008 0.27585,0.12411 0.58526,0.32495 0.81441,0.52408 0.169,0.14685 -0.0597,-0.0598 0.1055,0.0987 0.007,0.007 0.0312,0.007 0.0253,0.0152 -0.0417,0.0563 -0.11285,0.0831 -0.16879,0.12532 -0.29989,0.22623 -0.64827,0.39057 -0.93679,0.62661 -0.0534,0.0437 -0.26584,0.16739 -0.26584,0.23166 0,0.0141 0.0282,-0.006 0.0422,-0.004 0.0694,0.0112 0.13785,0.0279 0.20678,0.0418"
       id="path747" />
    <text
       xml:space="preserve"
       style="font-style:italic;font-size:10.5833px;line-height:1.25;font-family:sans-serif;-inkscape-font-specification:'sans-serif Italic';letter-spacing:0px;fill:#ffffff;stroke-width:0.264583"
       x="74.030922"
       y="107.11646"
       id="text751"><tspan
         sodipodi:role="line"
         id="tspan749"
         x="74.030922"
         y="107.11646"
         style="fill:#ffffff;stroke-width:0.264583">m</tspan></text>
    <path
       style="fill:none;stroke:#000000;stroke-width:0.264583px;stroke-linecap:butt;stroke-linejoin:miter;stroke-opacity:1"
       d="m 48.441234,21.558756 3.851394,-3.230314 v 0 0 l 3.052315,3.639173"
       id="path753" />
    <path
       style="fill:none;stroke:#000000;stroke-width:0.264583px;stroke-linecap:butt;stroke-linejoin:miter;stroke-opacity:1"
       d="m 235.97433,114.55856 3.5355,3.04145 -3.03677,3.53005"
       id="path755" />
    <text
       xml:space="preserve"
       style="font-style:italic;font-size:3.52777px;line-height:1.25;font-family:sans-serif;-inkscape-font-specification:'sans-serif Italic';letter-spacing:0px;stroke-width:0.264583"
       x="239.94766"
       y="121.39645"
       id="text759"><tspan
         sodipodi:role="line"
         id="tspan757"
         x="239.94766"
         y="121.39645"
         style="stroke-width:0.264583">x</tspan></text>
    <text
       xml:space="preserve"
       style="font-style:italic;font-size:3.52777px;line-height:1.25;font-family:sans-serif;-inkscape-font-specification:'sans-serif Italic';letter-spacing:0px;stroke-width:0.264583"
       x="47.472233"
       y="25.655758"
       id="text763"><tspan
         sodipodi:role="line"
         id="tspan761"
         x="47.472233"
         y="25.655758"
         style="stroke-width:0.264583">y</tspan></text>
  </g>
</svg>
