<?xml version="1.0" encoding="UTF-8" standalone="no"?>
<svg
   xmlns:dc="http://purl.org/dc/elements/1.1/"
   xmlns:cc="http://creativecommons.org/ns#"
   xmlns:rdf="http://www.w3.org/1999/02/22-rdf-syntax-ns#"
   xmlns:svg="http://www.w3.org/2000/svg"
   xmlns="http://www.w3.org/2000/svg"
   xmlns:sodipodi="http://sodipodi.sourceforge.net/DTD/sodipodi-0.dtd"
   xmlns:inkscape="http://www.inkscape.org/namespaces/inkscape"
   width="297mm"
   height="210mm"
   viewBox="0 0 297 210"
   version="1.1"
   id="svg8"
   inkscape:version="1.0.2 (e86c870879, 2021-01-15)"
   sodipodi:docname="graficodecomposizioneR.svg">
  <defs
     id="defs2" />
  <sodipodi:namedview
     id="base"
     pagecolor="#ffffff"
     bordercolor="#666666"
     borderopacity="1.0"
     inkscape:pageopacity="0.0"
     inkscape:pageshadow="2"
     inkscape:zoom="3.959798"
     inkscape:cx="498.679"
     inkscape:cy="305.69194"
     inkscape:document-units="mm"
     inkscape:current-layer="layer1"
     inkscape:document-rotation="0"
     showgrid="false"
     inkscape:window-width="1896"
     inkscape:window-height="1035"
     inkscape:window-x="1930"
     inkscape:window-y="31"
     inkscape:window-maximized="0" />
  <metadata
     id="metadata5">
    <rdf:RDF>
      <cc:Work
         rdf:about="">
        <dc:format>image/svg+xml</dc:format>
        <dc:type
           rdf:resource="http://purl.org/dc/dcmitype/StillImage" />
        <dc:title></dc:title>
      </cc:Work>
    </rdf:RDF>
  </metadata>
  <g
     inkscape:label="Livello 1"
     inkscape:groupmode="layer"
     id="layer1">
    <path
       style="fill:none;stroke:#000000;stroke-width:0.264583px;stroke-linecap:butt;stroke-linejoin:miter;stroke-opacity:1"
       d="M 66.059226,25.108315 V 155.07877 H 232.14929"
       id="path10" />
    <path
       style="fill:none;stroke:#000000;stroke-width:0.264583px;stroke-linecap:butt;stroke-linejoin:miter;stroke-opacity:1"
       d="m 60.894256,31.123776 5.16497,-6.015461 5.903003,5.068411"
       id="path12" />
    <path
       style="fill:none;stroke:#000000;stroke-width:0.264583px;stroke-linecap:butt;stroke-linejoin:miter;stroke-opacity:1"
       d="m 227.18686,150.94694 4.96243,4.13183 -4.48381,5.38516"
       id="path14" />
    <path
       style="fill:none;stroke:#000000;stroke-width:0.264583px;stroke-linecap:butt;stroke-linejoin:miter;stroke-opacity:1"
       d="M 80.845312,42.48632 H 221.07659 v 88.68251 H 79.933815 V 42.48632 Z"
       id="path16" />
    <path
       style="fill:none;stroke:#000000;stroke-width:0.260547px;stroke-linecap:butt;stroke-linejoin:miter;stroke-opacity:1"
       d="M 79.911499,50.78037 H 221.0698"
       id="path20" />
    <path
       style="fill:none;stroke:#000000;stroke-width:0.260205px;stroke-linecap:butt;stroke-linejoin:miter;stroke-opacity:1"
       d="M 79.931499,58.800983 H 220.97979"
       id="path22" />
    <path
       style="fill:none;stroke:#000000;stroke-width:0.261647px;stroke-linecap:butt;stroke-linejoin:miter;stroke-opacity:1"
       d="M 79.628309,66.608935 H 221.28768"
       id="path24" />
    <path
       style="fill:none;stroke:#000000;stroke-width:0.260323px;stroke-linecap:butt;stroke-linejoin:miter;stroke-opacity:1"
       d="M 79.92344,75.419457 H 220.90427"
       id="path26" />
    <path
       style="fill:none;stroke:#000000;stroke-width:0.260998px;stroke-linecap:butt;stroke-linejoin:miter;stroke-opacity:1"
       d="M 79.733002,83.3037 H 221.37977"
       id="path20-3" />
    <path
       style="fill:none;stroke:#000000;stroke-width:0.260376px;stroke-linecap:butt;stroke-linejoin:miter;stroke-opacity:1"
       d="M 79.825403,91.324308 H 221.06004"
       id="path22-6" />
    <path
       style="fill:none;stroke:#000000;stroke-width:0.260992px;stroke-linecap:butt;stroke-linejoin:miter;stroke-opacity:1"
       d="M 80.049279,99.132268 H 221.0001"
       id="path24-7" />
    <path
       style="fill:none;stroke:#000000;stroke-width:0.260047px;stroke-linecap:butt;stroke-linejoin:miter;stroke-opacity:1"
       d="M 80.17541,107.94279 H 220.85738"
       id="path26-5" />
    <path
       style="fill:none;stroke:#000000;stroke-width:0.260228px;stroke-linecap:butt;stroke-linejoin:miter;stroke-opacity:1"
       d="M 79.919652,115.34026 H 220.73179"
       id="path20-35" />
    <path
       style="fill:none;stroke:#000000;stroke-width:0.260508px;stroke-linecap:butt;stroke-linejoin:miter;stroke-opacity:1"
       d="M 79.90155,123.36088 H 221.27981"
       id="path22-62" />
    <path
       style="fill:none;stroke:#000000;stroke-width:0.264583px;stroke-linecap:butt;stroke-linejoin:miter;stroke-opacity:1"
       d="M 89.189882,42.782196 V 131.20647"
       id="path96" />
    <path
       style="fill:none;stroke:#000000;stroke-width:0.264583px;stroke-linecap:butt;stroke-linejoin:miter;stroke-opacity:1"
       d="M 98.96287,42.387242 V 131.40394"
       id="path98" />
    <path
       style="fill:none;stroke:#000000;stroke-width:0.264583px;stroke-linecap:butt;stroke-linejoin:miter;stroke-opacity:1"
       d="M 108.09444,42.797388 V 131.20647"
       id="path100" />
    <path
       style="fill:none;stroke:#000000;stroke-width:0.264583px;stroke-linecap:butt;stroke-linejoin:miter;stroke-opacity:1"
       d="m 116.24704,42.35686 v 88.87999"
       id="path102" />
    <path
       style="fill:none;stroke:#000000;stroke-width:0.264583px;stroke-linecap:butt;stroke-linejoin:miter;stroke-opacity:1"
       d="M 124.34897,42.645483 V 131.98119"
       id="path104" />
    <path
       style="fill:none;stroke:#000000;stroke-width:0.264583px;stroke-linecap:butt;stroke-linejoin:miter;stroke-opacity:1"
       d="M 132.25847,42.476104 V 130.90038"
       id="path96-2" />
    <path
       style="fill:none;stroke:#000000;stroke-width:0.264583px;stroke-linecap:butt;stroke-linejoin:miter;stroke-opacity:1"
       d="m 142.03145,42.08115 v 89.0167"
       id="path98-7" />
    <path
       style="fill:none;stroke:#000000;stroke-width:0.264583px;stroke-linecap:butt;stroke-linejoin:miter;stroke-opacity:1"
       d="M 151.16302,42.491296 V 130.90038"
       id="path100-0" />
    <path
       style="fill:none;stroke:#000000;stroke-width:0.264583px;stroke-linecap:butt;stroke-linejoin:miter;stroke-opacity:1"
       d="M 159.31562,42.050768 V 130.93076"
       id="path102-9" />
    <path
       style="fill:none;stroke:#000000;stroke-width:0.264583px;stroke-linecap:butt;stroke-linejoin:miter;stroke-opacity:1"
       d="M 167.41755,42.339391 V 131.6751"
       id="path104-3" />
    <path
       style="fill:none;stroke:#000000;stroke-width:0.264583px;stroke-linecap:butt;stroke-linejoin:miter;stroke-opacity:1"
       d="M 176.16963,42.597162 V 131.02144"
       id="path96-6" />
    <path
       style="fill:none;stroke:#000000;stroke-width:0.264583px;stroke-linecap:butt;stroke-linejoin:miter;stroke-opacity:1"
       d="M 185.94262,42.202208 V 131.21891"
       id="path98-0" />
    <path
       style="fill:none;stroke:#000000;stroke-width:0.264583px;stroke-linecap:butt;stroke-linejoin:miter;stroke-opacity:1"
       d="M 195.07419,42.612354 V 131.02144"
       id="path100-6" />
    <path
       style="fill:none;stroke:#000000;stroke-width:0.264583px;stroke-linecap:butt;stroke-linejoin:miter;stroke-opacity:1"
       d="M 203.22679,42.171826 V 131.05182"
       id="path102-2" />
    <path
       style="fill:none;stroke:#000000;stroke-width:0.264583px;stroke-linecap:butt;stroke-linejoin:miter;stroke-opacity:1"
       d="M 211.32872,42.460449 V 131.79616"
       id="path104-6" />
    <path
       style="fill:none;stroke:#000000;stroke-width:0.264583px;stroke-linecap:butt;stroke-linejoin:miter;stroke-opacity:1"
       d="m 158.20152,82.075879 c -0.76903,1.06622 -0.0939,0.07025 -0.38821,0.600027 -0.008,0.01349 0.001,-0.03191 0.008,-0.04557 0.0466,-0.08832 0.0955,-0.175845 0.15192,-0.258241 0.30395,-0.443751 0.58816,-1.038432 1.01273,-1.382342 0.11784,-0.09545 -0.17136,0.250317 -0.26162,0.372168 -0.15426,0.20824 -1.02259,1.412999 -1.08026,1.389936 -0.0223,-0.0089 0.0212,-0.180206 0.16879,-0.43293 0.59932,-1.026277 0.26935,-0.390187 0.78488,-1.207649 0.14835,-0.23523 0.27892,-0.508711 0.27851,-0.508881 -0.0373,-0.01527 -0.3818,0.298027 -0.49794,0.402548 -0.14192,0.127728 -0.28255,0.25691 -0.42198,0.387361 -0.14471,0.135395 -0.288,0.27233 -0.43041,0.410144 -0.20312,0.196564 -0.37433,0.428775 -0.5992,0.600027 -0.0231,0.01762 0.0118,-0.05779 0.0253,-0.08355 0.0599,-0.114049 0.12569,-0.225039 0.1941,-0.334193 0.17905,-0.285649 1.2544,-1.906413 1.35033,-1.906413 0.008,0 -0.12365,0.194972 -0.31226,0.432933 -0.53196,0.671139 -1.06897,1.435872 -1.67947,2.043128 -0.0156,0.01548 0.0131,-0.04251 0.0253,-0.06076 0.0978,-0.146688 0.20163,-0.289272 0.30383,-0.43293 0.53755,-0.755624 1.05327,-1.546315 1.66258,-2.248207 0.019,-0.02188 -0.0253,0.05241 -0.0422,0.07595 -0.0958,0.133612 -0.19434,0.265276 -0.29539,0.394954 -0.45769,0.587343 -0.88489,1.112996 -1.37563,1.678556 -0.44179,0.509154 -0.69587,0.691407 -0.69206,0.675982 0.1504,-0.609053 1.39552,-2.147613 1.59509,-2.430492 0.0172,-0.02445 0.44455,-0.644668 0.52325,-0.751933 0.029,-0.03949 0.11573,-0.157223 0.0928,-0.113927 -0.43232,0.816984 -1.32573,1.719964 -1.94108,2.430489 -0.0165,0.019 -0.56261,0.66855 -0.62454,0.675979 -0.0757,0.0091 0.0605,-0.140663 0.10129,-0.205071 0.11986,-0.189251 0.24454,-0.375861 0.37978,-0.554452 1.01034,-1.33426 0.92591,-1.192409 1.73854,-2.172256 0.56622,-0.682728 0.052,-0.07079 0.56545,-0.698765 0.0214,-0.02622 0.0875,-0.103317 0.0675,-0.07595 -0.70245,0.962615 -1.49976,1.850266 -2.25336,2.772275 -0.47456,0.580612 -0.28943,0.367308 -0.63297,0.820293 -0.0467,0.06161 -0.13776,0.2594 -0.14347,0.182287 -0.008,-0.108219 0.0804,-0.202477 0.13504,-0.296216 0.15388,-0.263875 0.31568,-0.523513 0.48948,-0.774716 0.78962,-1.14132 0.97617,-1.308227 1.80606,-2.400112 0.22082,-0.290537 0.43311,-0.58746 0.64985,-0.881055 0.18277,-0.247568 0.28344,-0.383498 0.26163,-0.341786 -0.3676,0.702993 -0.94657,1.273498 -1.43473,1.898819 -1.36157,1.744131 -0.65389,0.761008 -1.71322,2.240608 -0.20191,0.282014 -0.39692,0.568931 -0.59921,0.850675 -0.0441,0.06143 -0.16851,0.250087 -0.13503,0.182282 0.18558,-0.375885 0.47311,-0.692253 0.71735,-1.032957 0.90565,-1.263324 1.82541,-2.518656 2.81038,-3.721684 0.0143,-0.01752 -0.0275,0.03601 -0.0422,0.05317 -0.37067,0.43098 -0.74836,0.855961 -1.11402,1.291198 -0.84518,1.005991 -1.58937,2.08061 -2.42215,3.091278 -0.0564,0.0685 -0.15997,0.264221 -0.19411,0.182288 -0.0431,-0.103378 0.0854,-0.208058 0.14348,-0.303811 0.74069,-1.220928 1.62931,-2.323121 2.53186,-3.42547 0.29831,-0.364342 0.2408,-0.294016 0.5148,-0.622816 0.0169,-0.02024 0.064,-0.08351 0.0506,-0.06076 -0.66157,1.128194 -1.60962,2.112161 -2.43058,3.129259 -0.20489,0.253839 -0.39804,0.517168 -0.60766,0.767122 -0.0399,0.04759 -0.15235,0.193226 -0.12658,0.136716 0.2553,-0.560036 0.65741,-1.041022 1.0043,-1.54944 0.84286,-1.235337 0.99659,-1.453562 1.83139,-2.552012 0.0494,-0.06506 0.47735,-0.641337 0.50637,-0.61522 0.0301,0.02709 -0.0207,0.07962 -0.0422,0.11393 -0.13936,0.222229 -0.28055,0.44404 -0.43885,0.653195 -0.50312,0.664737 -1.02805,1.312693 -1.54444,1.967177 -0.25676,0.325422 -1.70803,2.226919 -1.75542,2.233012 -0.0412,0.0053 0.0277,-0.0793 0.0506,-0.113929 0.29808,-0.449453 0.60194,-0.89512 0.91147,-1.336768 0.85546,-1.220637 1.75351,-2.408576 2.65845,-3.592571 0.12608,-0.164957 0.2518,-0.330208 0.37978,-0.493694 0.0464,-0.05933 0.19724,-0.227478 0.14347,-0.174688 -1.00972,0.991309 -1.99625,2.415479 -2.82724,3.478638 -0.3663,0.468644 -0.72958,0.939867 -1.08025,1.420318 -0.0691,0.09462 -0.27378,0.379915 -0.21099,0.281025 0.71245,-1.12209 1.51197,-2.238643 2.27867,-3.31914 0.47063,-0.663244 0.95471,-1.316934 1.44315,-1.967177 0.12218,-0.162658 0.25307,-0.31886 0.38823,-0.470908 0.0536,-0.06026 0.23996,-0.210627 0.1941,-0.144309 -0.43576,0.630282 -1.42303,1.821799 -1.74698,2.240608 -1.37796,1.7814 -1.18007,1.541187 -2.32932,3.212803 -0.27613,0.401657 -0.51724,0.830885 -0.83551,1.200055 -0.0364,0.04223 -0.14681,0.153242 -0.13503,0.09874 0.0296,-0.13676 0.12022,-0.253359 0.19412,-0.372168 0.21614,-0.34749 0.44561,-0.686572 0.67515,-1.025361 0.66435,-0.98053 1.85518,-2.673178 2.48967,-3.539402 0.38111,-0.520301 1.32367,-1.501439 1.6457,-2.081107 0.0421,-0.0757 -0.11279,0.131426 -0.16879,0.197477 -0.31534,0.371943 -0.63779,0.737997 -0.94523,1.116507 -1.36151,1.676302 -2.58083,3.428688 -3.83997,5.179981 -0.0881,0.122539 -0.18132,0.241517 -0.27851,0.356978 -0.0437,0.05189 -0.0765,0.133358 -0.14347,0.144312 -0.0456,0.0075 0.0251,-0.09062 0.0506,-0.129122 0.33512,-0.504227 0.68802,-0.99641 1.02962,-1.496269 0.7181,-1.050798 1.41326,-2.117349 2.14365,-3.159635 0.0176,-0.02511 0.87474,-1.040215 0.94522,-1.230437 0.0222,-0.06006 -0.091,0.09023 -0.13502,0.136715 -0.21757,0.229492 -0.44211,0.452747 -0.64986,0.691169 -0.97175,1.115237 -1.45559,1.717018 -2.29554,2.939375 -0.3067,0.446331 -0.58672,0.910426 -0.87771,1.36715 -0.0607,0.09521 -0.1172,0.193016 -0.17724,0.28862 -0.0131,0.02088 -0.0545,0.08217 -0.0422,0.06077 0.76344,-1.333725 1.68252,-2.60304 2.51498,-3.896382 0.1676,-0.260387 0.53544,-0.90325 0.81864,-1.215244 0.0712,-0.07846 0.26467,-0.314772 0.23631,-0.212667 -0.0358,0.128768 -0.17692,0.200435 -0.26162,0.303811 -0.28667,0.34985 -0.57988,0.694761 -0.8524,1.055745 -0.37758,0.500145 -0.74558,1.007883 -1.09714,1.526649 -0.34357,0.506994 -0.65845,1.032854 -0.98743,1.549437 -0.0789,0.123952 -0.15231,0.251589 -0.23631,0.372171 -0.0344,0.04942 -0.10718,0.195937 -0.11815,0.136713 -0.0151,-0.08173 0.0588,-0.156438 0.10127,-0.227857 0.21103,-0.354518 0.43485,-0.701315 0.65829,-1.04815 0.50238,-0.779832 1.01536,-1.552805 1.51912,-2.331751 0.31838,-0.492318 0.6136,-0.999498 0.93679,-1.488673 0.0332,-0.05026 0.15817,-0.181734 0.11816,-0.136716 -0.41691,0.468996 -0.42205,0.441929 -0.96212,1.139291 -0.35531,0.458798 -0.70077,0.925333 -1.03807,1.397532 -0.27048,0.378656 -0.53005,0.765117 -0.78487,1.154483 -0.16802,0.256741 -0.24452,0.584679 -0.47262,0.789908 -0.0378,0.034 0.0418,-0.09287 0.0675,-0.136713 0.16003,-0.272764 0.32692,-0.541449 0.4895,-0.812697 1.73718,-2.89823 0.16352,-0.266747 2.00017,-3.395088 0.0678,-0.115462 0.13827,-0.229367 0.21099,-0.341789 0.0491,-0.07599 0.21274,-0.291782 0.16878,-0.212669 -0.58409,1.051348 -1.35828,2.018609 -2.01704,3.022923 -0.31648,0.482483 -0.68733,1.268513 -1.11402,1.716534 -0.024,0.02519 0.0165,-0.06853 0.0338,-0.09874 0.14064,-0.246359 0.29398,-0.485259 0.43885,-0.729146 0.48528,-0.816925 0.97376,-1.631985 1.4516,-2.453278 0.18322,-0.314918 0.91597,-1.876959 1.24061,-1.944391 0.33303,-0.06918 -0.32998,0.595508 -0.5148,0.881055 -0.32869,0.507806 -0.67319,1.005234 -1.00432,1.511458 -0.34124,0.521695 -0.67685,1.047062 -1.01273,1.572223 -0.12004,0.18768 -0.6833,1.226296 -1.06339,1.625391 -0.034,0.03572 0.0559,-0.08129 0.0844,-0.12152 0.15996,-0.225608 0.32538,-0.4474 0.48105,-0.675984 1.03148,-1.514602 1.22233,-1.852981 2.29556,-3.562186 0.20153,-0.320956 0.45973,-0.852998 0.8102,-1.086125 0.0149,-0.0099 0.018,0.03802 0.008,0.05317 -0.12798,0.201557 -0.27622,0.389519 -0.41354,0.584835 -0.35217,0.500919 -0.71189,0.996656 -1.05495,1.503865 -1.00143,1.480632 -1.17608,1.795536 -2.0508,3.20521 -0.2286,0.368406 -0.38264,0.797578 -0.69204,1.101317 -0.0146,0.01431 -0.002,-0.04313 0.008,-0.06077 0.0974,-0.166127 0.20353,-0.327144 0.31226,-0.486098 1.12056,-1.638131 2.23987,-3.306199 3.4771,-4.860978 0.26823,-0.337069 0.49183,-0.610375 0.85238,-0.827884 0.13391,-0.08079 0.27896,-0.141806 0.42198,-0.205073 0.0236,-0.01045 0.0829,-0.04007 0.076,-0.01519 -0.0131,0.04716 -0.0685,0.06997 -0.10127,0.106333 -0.1726,0.191516 -0.35143,0.377793 -0.5148,0.577242 -0.48385,0.590698 -0.95419,1.192363 -1.42629,1.792488 -0.40926,0.520229 -0.99921,1.48699 -1.54444,1.936795 -0.0223,0.01844 0.0257,-0.05217 0.0422,-0.07595 0.16643,-0.239644 0.33221,-0.479869 0.50637,-0.713954 0.77677,-1.044064 1.59334,-2.06384 2.44748,-3.045709 0.20191,-0.232108 0.24035,-0.248137 0.43885,-0.440526 0.0122,-0.0118 0.0427,-0.05236 0.0337,-0.03798 -0.32832,0.527626 -0.55655,0.672324 -1.09714,1.306388 -0.91653,1.074994 -1.23883,1.45144 -2.02548,2.582397 -0.0254,0.03655 -0.54984,0.877236 -0.66672,1.055743 -0.0124,0.01892 -0.0543,0.07227 -0.0422,0.05316 0.87347,-1.375595 1.9553,-2.671101 3.09732,-3.828021 0.18445,-0.186856 0.56486,-0.447381 0.79331,-0.600027 0.0635,-0.04241 0.23457,-0.186256 0.19411,-0.121523 -0.0888,0.142076 -0.23101,0.242731 -0.34601,0.364572 -0.32948,0.349067 -0.6646,0.69293 -0.98743,1.048149 -0.96714,1.064152 -1.48931,1.64074 -2.31243,2.764682 -0.28184,0.384836 -0.435,0.669086 -0.66672,1.040556 -0.0272,0.04363 -0.0972,0.178927 -0.0844,0.129119 0.0984,-0.383905 0.69426,-1.242359 0.75113,-1.329174 0.62478,-0.953818 1.28653,-1.897195 2.00016,-2.78747 0.34501,-0.4304 0.70634,-0.847662 1.07182,-1.260816 0.0962,-0.108773 0.20745,-0.203296 0.31226,-0.303811 0.0668,-0.06405 0.13594,-0.125642 0.20256,-0.189881 0.0122,-0.01175 0.0455,-0.05014 0.0337,-0.03798 -1.21909,1.258477 -2.25254,2.683912 -3.23234,4.131834 -0.20905,0.308938 -0.40916,0.623848 -0.61609,0.93422 -0.12528,0.187925 -0.26556,0.376579 -0.21942,0.265835 0.32163,-0.771917 0.91343,-1.401684 1.40096,-2.081107 0.44968,-0.626676 1.12815,-1.529297 1.68791,-2.141871 0.13628,-0.149143 0.59268,-0.558522 0.75956,-0.706361 0.0611,-0.0541 0.22025,-0.233404 0.18567,-0.159501 -0.0559,0.119404 -0.16949,0.201962 -0.25319,0.30381 -0.31578,0.384255 -0.63562,0.765242 -0.94523,1.154483 -0.77545,0.974892 -1.87194,2.414815 -2.61626,3.395091 -0.34695,0.456946 -0.6246,0.816899 -0.64983,0.774721 -0.0295,-0.04929 0.0124,-0.117956 0.0422,-0.167097 0.26145,-0.431758 0.53381,-0.857602 0.82708,-1.268413 0.86262,-1.20837 1.8264,-2.427189 2.91164,-3.448259 0.18023,-0.169566 0.38085,-0.316095 0.57389,-0.470905 0.0911,-0.07308 0.1849,-0.142806 0.27851,-0.21267 0.0217,-0.01624 0.0442,-0.05954 0.0675,-0.04557 0.0211,0.0127 -0.0245,0.04363 -0.0422,0.06076 -0.13737,0.132614 -0.28238,0.257098 -0.42198,0.387358 -0.62559,0.583702 -1.25756,1.160719 -1.87358,1.75451 -0.2347,0.226224 -1.69922,1.702821 -2.11832,2.134272 -0.0284,0.02919 -0.88739,0.92978 -0.90303,0.873458 -0.0184,-0.0662 0.0266,-0.136937 0.0591,-0.197474 0.12868,-0.239747 0.27269,-0.471278 0.42198,-0.698767 0.85863,-1.308444 1.47473,-2.135119 2.48966,-3.425473 0.18501,-0.23521 0.39196,-0.452321 0.59077,-0.675979 0.21686,-0.243959 0.38147,-0.395634 0.32915,-0.334192 -1.09768,1.289057 -2.16867,2.585018 -3.17327,3.949543 -0.36954,0.356458 -0.55435,0.840296 -0.8524,1.24563 -0.0413,0.05611 -0.14862,0.221363 -0.14347,0.151905 0.0102,-0.137036 0.0925,-0.260252 0.16035,-0.379765 0.20287,-0.357539 0.42181,-0.706109 0.64984,-1.048146 0.76573,-1.148541 1.10556,-1.563521 1.96642,-2.643159 0.24062,-0.301776 0.2685,-0.312055 0.4895,-0.577244 0.035,-0.04202 0.14017,-0.167566 0.10127,-0.129119 -0.94581,0.934643 -1.78899,2.008118 -2.56562,3.083684 -0.20857,0.288843 -0.39285,0.594537 -0.58234,0.896242 -0.0313,0.04987 -0.10877,0.208394 -0.076,0.159504 0.64962,-0.967624 1.25869,-1.965034 1.87358,-2.954565 0.31827,-0.512183 0.55154,-1.092997 0.97055,-1.526654 0.016,-0.01651 0.003,0.04829 -0.008,0.06836 -0.12477,0.224568 -0.25624,0.445667 -0.39667,0.660787 -0.2826,0.432906 -1.43993,2.092767 -1.69635,2.468467 -0.33598,0.492268 -0.40097,0.599085 -0.65827,0.994981 -0.028,0.04311 -0.10717,0.175226 -0.0844,0.12912 0.17404,-0.35246 0.42399,-0.662054 0.63297,-0.994982 1.2735,-2.028722 0.72875,-1.234895 2.18584,-3.463446 0.0985,-0.150648 0.20376,-0.29692 0.31226,-0.440526 0.0454,-0.06015 0.18975,-0.228928 0.16036,-0.159501 -0.50084,1.183148 -1.67108,2.390923 -2.42215,3.463449 -0.39418,0.562893 -0.59303,0.893796 -0.91148,1.427911 -0.0315,0.05283 -0.10537,0.219723 -0.0928,0.159501 0.0981,-0.470659 0.44909,-0.851 0.70048,-1.260819 1.09167,-1.779677 0.63286,-1.002374 1.67947,-2.62037 0.20011,-0.309366 0.38509,-0.62852 0.59077,-0.934219 0.0208,-0.03086 -0.0125,0.07582 -0.0338,0.106333 -0.63239,0.907656 -1.2883,1.798735 -1.92422,2.703923 -0.34591,0.492389 -0.67919,0.993547 -1.02118,1.488672 -0.0462,0.06695 -0.17327,0.273193 -0.14347,0.19748 0.37104,-0.942845 0.98909,-1.769663 1.52755,-2.627969 0.23726,-0.37819 0.49207,-0.745302 0.75112,-1.108911 0.0481,-0.06744 0.21176,-0.253076 0.1688,-0.182287 -0.48945,0.806302 -1.8552,2.661296 -2.17739,3.12166 -0.0963,0.137597 -0.35456,0.570489 -0.27008,0.425336 0.64686,-1.111414 1.32217,-2.206056 1.99173,-3.303947 0.0833,-0.136628 0.33934,-0.542446 0.26163,-0.402548 -0.37062,0.667166 -0.95667,1.324634 -1.39253,1.891223 -0.20151,0.261948 -0.36949,0.552313 -0.5992,0.789909 -0.0482,0.04981 0.006,-0.141547 0.0338,-0.205074 0.13092,-0.300849 0.28462,-0.591462 0.43885,-0.881052 0.2369,-0.444799 0.48787,-0.881956 0.73424,-1.321577 0.08,-0.142696 0.16011,-0.285359 0.24474,-0.425337 0.0196,-0.03236 0.0802,-0.126767 0.0675,-0.09114 -0.10377,0.291836 -1.28738,2.276309 -1.51066,2.407701 -0.13757,0.08095 0.0984,-0.304845 0.16878,-0.44812 0.26201,-0.533545 0.55022,-1.053822 0.82707,-1.579819 0.0776,-0.147458 0.30398,-0.592799 0.2363,-0.440526 -0.30661,0.689885 -0.45477,0.765752 -0.9621,1.488676 -0.11693,0.166621 -0.22875,0.336859 -0.33757,0.508883 -0.11066,0.174908 -0.14186,0.427519 -0.32071,0.53167 -0.13882,0.08083 0.10405,-0.305126 0.17723,-0.448122 0.23953,-0.468024 0.50345,-0.923179 0.75956,-1.38234 0.0984,-0.176344 0.13554,-0.412474 0.30381,-0.524076 0.1227,-0.08137 -0.0728,0.288592 -0.14347,0.41774 -0.25165,0.45973 -0.53912,0.906045 -0.88614,1.298792 -0.16603,0.187907 0.0448,-0.51004 0.1519,-0.73674 0.16184,-0.342416 0.36103,-0.665954 0.54858,-0.994981 0.0348,-0.06107 0.14646,-0.239044 0.11816,-0.174694 -0.0983,0.22344 -0.73814,1.447199 -0.9368,1.268412 -0.11857,-0.106714 -0.0373,-0.321606 -0.008,-0.478501 0.19774,-1.075124 0.44483,-0.621938 -0.0675,-0.04557 -0.028,0.03154 -0.10678,0.03726 -0.12658,0 -0.0552,-0.103783 0.14502,-0.585528 0.24474,-0.630407 0.0324,-0.01461 -0.0165,0.07171 -0.008,0.106333 0.0124,0.05303 0.0786,0.03798 0.10972,0.03798"
       id="path175" />
    <path
       style="fill:none;stroke:#000000;stroke-width:0.264583px;stroke-linecap:butt;stroke-linejoin:miter;stroke-opacity:1"
       d="m 155.15485,72.98433 c -0.0563,-0.225327 -0.13919,-0.445632 -0.16879,-0.675981 -0.082,-0.637778 0.20465,-2.414987 0.32915,-3.045709 0.042,-0.212765 0.12093,-0.823661 0.31226,-0.881055 0.16925,-0.05077 0.65909,0.404697 0.75956,0.539266 0.1702,0.227989 0.25521,0.404101 0.33757,0.668385 0.17562,0.563486 0.0361,1.375969 -0.70892,1.389939 -0.30598,0.0057 -0.53193,-0.276852 -0.54857,-0.250645 -0.0485,0.07647 0.11488,0.389387 0.13504,0.432932 0.31722,0.685141 0.68378,1.398 1.0887,2.035532 0.009,0.01368 -0.0124,-0.02999 -0.0169,-0.04557 -0.0773,-0.271198 -0.0827,-0.168875 -0.0506,-0.341786"
       id="path177" />
    <path
       style="fill:none;stroke:#000000;stroke-width:0.264583px;stroke-linecap:butt;stroke-linejoin:miter;stroke-opacity:1"
       d="m 160.58992,69.37657 c -0.0106,1.203557 0.157,2.402268 0.12658,3.60776 -0.005,0.187809 0.008,0.374822 0.0169,0.562049 8e-4,0.01778 -5.3e-4,0.319003 0,0.319003 0.10293,0 0.0935,-0.183457 0.14348,-0.273434"
       id="path179" />
    <path
       style="fill:none;stroke:#000000;stroke-width:0.264583px;stroke-linecap:butt;stroke-linejoin:miter;stroke-opacity:1"
       d="m 162.26942,70.120906 c -0.0358,-0.08747 0.0583,-0.301745 -0.0338,-0.281025 -0.0503,0.01131 -0.18744,0.393317 -0.24474,0.501288 -0.33655,0.633804 -0.78992,1.211622 -1.05495,1.876033 0.16062,0.254551 1.40707,1.860148 1.56132,1.906418"
       id="path181" />
    <path
       style="fill:none;stroke:#000000;stroke-width:0.264583px;stroke-linecap:butt;stroke-linejoin:miter;stroke-opacity:1"
       d="m 163.51843,69.551261 c -0.0527,0.533977 0.0834,1.054692 0.16879,1.579816 0.0548,0.336958 0.0867,0.523722 0.14347,0.865865 0.0395,0.237966 0.0816,0.475517 0.11815,0.713954 0.0134,0.08758 0.0709,0.543058 0.0844,0.668388 0.0261,0.242575 0.0245,0.486098 0.0422,0.486098 0.0558,0 0.008,-0.111329 0.008,-0.167098 0,-0.247306 0.001,-0.499671 0.0844,-0.736743 0.11567,-0.328956 0.72475,-1.47298 1.24061,-1.139293 0.51382,0.332378 0.48154,1.418111 0.43884,1.936798 -0.01,0.117282 -0.0947,0.458488 -0.0506,0.349385 0.0559,-0.138361 0.019,-0.07162 0.0928,-0.182288"
       id="path183" />
  </g>
</svg>
