<?xml version="1.0" encoding="UTF-8" standalone="no"?>
<!-- Created with Inkscape (http://www.inkscape.org/) -->

<svg
   width="279mm"
   height="210mm"
   viewBox="0 0 279 210"
   version="1.1"
   id="svg5"
   inkscape:version="1.1 (c4e8f9e, 2021-05-24)"
   sodipodi:docname="moto armonico.svg"
   xmlns:inkscape="http://www.inkscape.org/namespaces/inkscape"
   xmlns:sodipodi="http://sodipodi.sourceforge.net/DTD/sodipodi-0.dtd"
   xmlns="http://www.w3.org/2000/svg"
   xmlns:svg="http://www.w3.org/2000/svg">
  <sodipodi:namedview
     id="namedview7"
     pagecolor="#505050"
     bordercolor="#eeeeee"
     borderopacity="1"
     inkscape:pageshadow="0"
     inkscape:pageopacity="0"
     inkscape:pagecheckerboard="0"
     inkscape:document-units="mm"
     showgrid="false"
     inkscape:zoom="0.71059524"
     inkscape:cx="432.7358"
     inkscape:cy="346.18864"
     inkscape:window-width="1440"
     inkscape:window-height="786"
     inkscape:window-x="0"
     inkscape:window-y="25"
     inkscape:window-maximized="0"
     inkscape:current-layer="layer1" />
  <defs
     id="defs2">
    <inkscape:path-effect
       effect="spiro"
       id="path-effect207"
       is_visible="true"
       lpeversion="1" />
  </defs>
  <g
     inkscape:label="Livello 1"
     inkscape:groupmode="layer"
     id="layer1">
    <rect
       style="fill:#0000ff;stroke-width:0.455079"
       id="rect77"
       width="51.873978"
       height="53.795223"
       x="175.49889"
       y="60.602531" />
    <path
       style="fill:none;stroke:#000000;stroke-width:0.455079px;stroke-linecap:butt;stroke-linejoin:miter;stroke-opacity:1"
       d="m 62.78505,103.51064 c 1.768223,-4.589917 5.165406,-8.533175 9.44316,-10.961089 4.277754,-2.427915 9.405051,-3.322875 14.252367,-2.487724 2.96788,0.51134 5.845896,1.667725 8.227366,3.511195 2.38147,1.84347 4.247429,4.39017 5.105021,7.277088 0.857596,2.88692 0.666206,6.10668 -0.696939,8.79212 -1.363143,2.68545 -3.924638,4.7757 -6.87168,5.39596 -1.560373,0.32841 -3.197828,0.25227 -4.735981,-0.16809 -1.538154,-0.42036 -2.976858,-1.18055 -4.225194,-2.17265 -2.496672,-1.98421 -4.191268,-4.85755 -5.128053,-7.90598 -1.028341,-3.34636 -1.188892,-6.955225 -0.463095,-10.379963 0.725797,-3.424737 2.336232,-6.657948 4.631458,-9.301345 2.295225,-2.643397 5.270189,-4.691376 8.558257,-5.893132 3.288068,-1.201756 6.88215,-1.554848 10.341433,-1.017285 3.45928,0.537562 6.77642,1.964499 9.54646,4.105178 2.77004,2.140678 4.9872,4.990464 6.38232,8.201264 1.39512,3.210801 1.9654,6.775816 1.64286,10.261723 -0.32255,3.48591 -1.53711,6.88545 -3.49536,9.78733 -1.17127,1.73568 -2.61767,3.30564 -4.36035,4.46648 -1.74267,1.16084 -3.7928,1.89946 -5.88636,1.93771 -1.78718,0.0327 -3.57485,-0.44781 -5.128447,-1.33179 -1.553592,-0.88397 -2.872472,-2.16548 -3.840566,-3.6681 -1.936188,-3.00523 -2.410118,-6.83365 -1.60656,-10.31712 0.803558,-3.483465 2.812376,-6.623226 5.396939,-9.093101 2.584564,-2.469874 5.727034,-4.300677 9.021144,-5.689586 3.66134,-1.543743 7.56391,-2.568514 11.53235,-2.768498 3.96844,-0.199985 8.00576,0.442338 11.61899,2.095539 3.61323,1.653202 6.78436,4.341977 8.79802,7.767431 2.01365,3.425453 2.81965,7.591175 1.99286,11.477685 -0.81506,3.83141 -3.29043,7.35327 -6.79381,9.1055 -1.75169,0.87612 -3.73151,1.30495 -5.68635,1.1841 -1.95484,-0.12085 -3.87882,-0.79691 -5.45158,-1.96414 -1.36505,-1.01308 -2.45467,-2.3843 -3.1766,-3.9233 -0.72192,-1.539 -1.07901,-3.24208 -1.08409,-4.94198 -0.0102,-3.3998 1.39291,-6.722001 3.56735,-9.335536 2.17444,-2.613535 5.08114,-4.55272 8.19603,-5.915147 3.1149,-1.362428 6.44386,-2.17233 9.78863,-2.781654 11.13729,-2.028905 22.66684,-1.881356 33.74856,0.431895"
       id="path205"
       inkscape:path-effect="#path-effect207"
       inkscape:original-d="m 62.78505,103.51064 c 7.898957,-4.482481 15.797465,-8.965426 23.695527,-13.448813 7.898044,-4.483389 3.842959,16.651363 5.763768,24.976363 1.920809,8.32499 -9.392366,-6.83069 -14.089228,-10.24672 -4.696864,-3.41602 24.763343,3.84297 37.144333,5.76377 12.38098,1.92082 -6.83068,4.26993 -10.24671,6.40419 -3.41603,2.13428 2.56212,-20.066013 3.84251,-30.099697 1.28039,-10.033693 22.62862,12.381899 33.94222,18.572157 11.31363,6.19028 -11.95402,5.55076 -17.93174,8.32546 -5.9777,2.77468 11.52801,-17.931298 17.29132,-26.897617 5.76333,-8.966328 20.51369,-0.20807 33.74856,0.431895"
       sodipodi:nodetypes="csssssssssc" />
    <path
       style="fill:none;stroke:#000000;stroke-width:0.455079px;stroke-linecap:butt;stroke-linejoin:miter;stroke-opacity:1"
       d="M 63.425469,23.458208 62.144632,183.56307"
       id="path209" />
    <ellipse
       style="fill:#000000;stroke-width:0.250736"
       id="path321"
       cx="62.785072"
       cy="104.47128"
       rx="5.1233573"
       ry="5.4435673" />
    <text
       xml:space="preserve"
       style="font-style:normal;font-weight:normal;font-size:18.2031px;line-height:1.25;font-family:sans-serif;fill:#000000;fill-opacity:1;stroke:none;stroke-width:0.455079"
       x="99.929359"
       y="46.513309"
       id="text7621"><tspan
         sodipodi:role="line"
         id="tspan7619"
         style="stroke-width:0.455079"
         x="99.929359"
         y="46.513309">K</tspan></text>
    <text
       xml:space="preserve"
       style="font-style:normal;font-weight:normal;font-size:18.2031px;line-height:1.25;font-family:sans-serif;fill:#000000;fill-opacity:1;stroke:none;stroke-width:0.455079"
       x="190.22853"
       y="45.872883"
       id="text11585"><tspan
         sodipodi:role="line"
         id="tspan11583"
         style="stroke-width:0.455079"
         x="190.22853"
         y="45.872883">m</tspan></text>
  </g>
</svg>
